<svg width="45" height="45" viewBox="0 0 45 45" fill="none" xmlns="http://www.w3.org/2000/svg">
<path d="M38.8601 9.80914H35.1634V6.1124C35.1634 5.12417 34.3581 4.31894 33.3699 4.31894H33.315C32.3085 4.31894 31.5032 5.12417 31.5032 6.1124V9.80914H27.8248C26.8366 9.80914 26.0313 10.6144 26.013 11.6026V11.6575C26.013 12.664 26.8183 13.4693 27.8248 13.4693H31.5032V17.1477C31.5032 18.1359 32.3085 18.9595 33.315 18.9412H33.3699C34.3581 18.9412 35.1634 18.1359 35.1634 17.1477V13.4693H38.8601C39.8483 13.4693 40.6536 12.664 40.6536 11.6758V11.6026C40.6536 10.6144 39.8483 9.80914 38.8601 9.80914ZM29.6732 17.1477V15.2993H27.8248C26.8549 15.2993 25.9398 14.915 25.2444 14.2379C24.5673 13.5425 24.183 12.6274 24.183 11.6026C24.183 10.9438 24.366 10.3399 24.6771 9.80914H9.54246C7.52938 9.80914 5.88232 11.4562 5.88232 13.4693V35.4301C5.88232 37.4431 7.52938 39.0902 9.54246 39.0902H31.5032C33.5163 39.0902 35.1634 37.4431 35.1634 35.4301V20.2771C34.6144 20.5882 33.9921 20.7895 33.2967 20.7895C31.3019 20.7712 29.6732 19.1425 29.6732 17.1477ZM29.6 35.4301H11.3725C10.6222 35.4301 10.183 34.5699 10.6405 33.966L14.264 29.1529C14.6483 28.6405 15.3987 28.6771 15.7647 29.1895L18.6928 33.6L23.4693 27.2314C23.8353 26.7555 24.549 26.7372 24.915 27.2131L30.3137 33.9477C30.7895 34.5516 30.3686 35.4301 29.6 35.4301Z" fill="#53137E"/>
</svg>
