<svg width="25" height="25" viewBox="0 0 45 45" fill="none" xmlns="http://www.w3.org/2000/svg">
<path d="M40.3676 27.7678C43.1923 26.2497 43.1673 22.1893 40.324 20.7007L16.0869 8.01168C13.4141 6.61237 10.2157 8.56015 10.2343 11.5758L10.3925 37.2057C10.4111 40.2213 13.6334 42.1357 16.2887 40.7086L40.3676 27.7678Z" fill="#30024F" stroke="#30024F" stroke-width="2"/>
<path d="M40.3676 24.1133C43.1923 22.5952 43.1673 18.5348 40.324 17.0462L16.0869 4.35719C13.4141 2.95787 10.2157 4.90566 10.2343 7.92135L10.3925 33.5512C10.4111 36.5669 13.6334 38.4812 16.2887 37.0541L40.3676 24.1133Z" fill="#4BE0AA"/>
<path d="M40.3676 24.1133C43.1923 22.5952 43.1673 18.5348 40.324 17.0462L16.0869 4.35719C13.4141 2.95787 10.2157 4.90566 10.2343 7.92135L10.3925 33.5512C10.4111 36.5669 13.6334 38.4812 16.2887 37.0541L40.3676 24.1133Z" stroke="#30024F" stroke-width="2"/>
<path d="M40.3676 24.1133C43.1923 22.5952 43.1673 18.5348 40.324 17.0462L16.0869 4.35719C13.4141 2.95787 10.2157 4.90566 10.2343 7.92135L10.3925 33.5512C10.4111 36.5669 13.6334 38.4812 16.2887 37.0541L40.3676 24.1133Z" stroke="#30024F" stroke-width="2"/>
<rect width="8.4671" height="3.74423" rx="1.87211" transform="matrix(0.873324 -0.48714 0.551286 0.834316 22.8707 24.2244)" fill="white"/>
<rect width="8.4671" height="3.74423" rx="1.87211" transform="matrix(0.873324 -0.48714 0.551286 0.834316 22.8707 24.2244)" fill="white"/>
<rect width="17.1488" height="3.7289" rx="1.86445" transform="matrix(0.89728 0.441463 -0.50354 0.863972 18.9613 9.59818)" fill="white"/>
<rect width="17.1488" height="3.7289" rx="1.86445" transform="matrix(0.89728 0.441463 -0.50354 0.863972 18.9613 9.59818)" fill="white"/>
</svg>
